<?xml version="1.0" standalone="no"?>
<!DOCTYPE svg PUBLIC "-//W3C//DTD SVG 20010904//EN"
 "http://www.w3.org/TR/2001/REC-SVG-20010904/DTD/svg10.dtd">
<svg version="1.0" xmlns="http://www.w3.org/2000/svg"
 width="348.000000pt" height="348.000000pt" viewBox="0 0 348.000000 348.000000"
 preserveAspectRatio="xMidYMid meet">
<metadata>
Created by potrace 1.11, written by Peter Selinger 2001-2013
</metadata>
<g transform="translate(0.000000,348.000000) scale(0.100000,-0.100000)"
fill="#000000" stroke="none">
<path d="M1510 3301 c0 -4 -28 -11 -62 -14 -88 -8 -258 -51 -335 -84 -17 -7
-45 -16 -62 -19 -17 -4 -31 -10 -31 -14 0 -4 -26 -17 -58 -29 -122 -44 -342
-193 -464 -313 -155 -155 -250 -285 -333 -461 -95 -200 -134 -369 -142 -607
-4 -131 -2 -174 16 -275 72 -399 299 -756 631 -993 36 -26 67 -50 68 -54 2 -5
8 -8 14 -8 5 0 22 -9 37 -19 52 -37 226 -120 327 -154 192 -67 393 -97 604
-92 275 7 511 65 752 186 81 41 152 83 176 106 6 6 21 15 32 18 11 3 20 10 20
14 0 4 21 23 46 41 53 38 200 182 260 256 113 136 209 315 268 496 52 161 70
271 70 443 -1 568 -314 1077 -839 1366 -92 50 -109 58 -265 111 -136 46 -244
74 -322 83 -32 4 -58 11 -58 16 0 5 -79 9 -175 9 -96 0 -175 -4 -175 -9z"/>
</g>
</svg>
